<svg width="48" height="38" xmlns="http://www.w3.org/2000/svg" xmlns:xlink="http://www.w3.org/1999/xlink" xml:space="preserve" overflow="hidden"><g><path d="M25.8326 37.952C25.6297 37.8893 25.3973 37.6495 25.2534 37.3617 25.0062 36.8489 24.9435 36.432 24.9398 35.2699 24.9398 34.2332 24.9103 33.9417 24.7184 32.9309 24.5229 31.92 24.4823 31.7503 24.3237 31.2707 24.2019 30.8944 24.1909 30.8353 24.1872 30.3816L24.1835 29.8946 24.047 29.6917C23.8736 29.426 23.6744 29.0313 23.5932 28.7767 23.5563 28.666 23.5194 28.559 23.5047 28.5369 23.4936 28.5184 23.4825 28.4852 23.4788 28.4631 23.4272 28.1348 23.0361 27.1608 22.7742 26.6959 22.2134 25.7072 21.435 24.6447 21.2689 24.6447 21.1841 24.6447 21.1398 24.5819 21.1398 24.4713 21.1398 24.3975 20.9406 24.1798 20.3577 23.6264 19.7637 23.0546 19.1107 22.5122 17.7456 21.4497 17.148 20.9849 16.5614 20.5274 16.4396 20.4315 16.2847 20.3097 16.1924 20.2617 16.1408 20.2765 16.0412 20.3023 15.8899 20.1806 15.8124 20.0146 15.7534 19.8891 15.3697 19.5755 14.5101 18.9483 14.2039 18.727 14.1633 18.7049 14.0932 18.7491 14.0231 18.7934 14.0047 18.7823 13.8977 18.6643 13.8313 18.5905 13.7501 18.4872 13.7169 18.4392 13.6431 18.3322 12.9458 17.8895 12.4035 17.6054 12.1231 17.4579 12.0087 17.4173 11.9792 17.4468 11.8759 17.5501 11.5033 17.4247 11.3668 17.2365 11.3041 17.1443 11.2155 17.1 10.8909 16.993 10.0423 16.7163 9.64019 16.613 7.65534 16.1592 5.85495 15.7497 5.34214 15.5911 4.50835 15.2 3.74097 14.8348 3.40155 14.5212 3.09903 13.894 2.72641 13.1192 2.69689 12.3887 2.99573 11.4922L3.1433 11.0532 3.11748 10.4002C3.09534 9.80252 3.09903 9.72505 3.17282 9.4299 3.22447 9.23437 3.2466 9.06466 3.23184 8.99456 3.21709 8.9134 3.0732 8.74 2.73748 8.39689 2.47922 8.13126 2.12136 7.70699 1.93689 7.45612 1.09573 6.30505 0.830097 5.96194 0.446408 5.5266 0.221359 5.26835 0.0368932 5.0433 0.0368932 5.02854 0.0405825 5.00272 0.409515 4.72602 0.553398 4.64854 0.593981 4.62272 0.546019 4.55631 0.350485 4.3534 0.206602 4.20951 0.0885437 4.08039 0.0848544 4.06563 0.0737864 4.03981 0.686214 3.8 0.767379 3.8 0.789515 3.8 0.81165 3.78524 0.81165 3.7668 0.81165 3.71883 0.516505 3.16913 0.450097 3.09165 0.398447 3.02893 0.413204 3.02524 0.723107 3.02155 0.903883 3.01786 1.1068 3.01786 1.1732 3.02155 1.28757 3.03262 1.29495 3.02524 1.25806 2.95515 1.21748 2.88505 0.996116 2.27262 0.996116 2.23942 0.996116 2.23204 1.03301 2.22835 1.08097 2.23942 1.12524 2.2468 1.30602 2.26524 1.4868 2.28L1.80777 2.30951 1.78932 2.06602C1.77825 1.9332 1.75981 1.7635 1.74874 1.68602 1.74136 1.60854 1.74505 1.5532 1.7635 1.56427 1.77825 1.57165 1.9332 1.60485 2.10291 1.63437 2.27631 1.66757 2.44602 1.70078 2.48291 1.71553 2.53456 1.73767 2.54563 1.72291 2.54563 1.63806 2.54563 1.57903 2.57883 1.42408 2.61942 1.29126 2.66 1.15845 2.6932 1.01456 2.6932 0.966602 2.6932 0.885437 2.69689 0.885437 2.94039 1.00718 3.43107 1.25437 3.65981 1.25068 4.43456 0.999806 5.30893 0.715728 5.85864 0.590291 6.78835 0.464854 9.34505 0.125437 13.2705 0.0442718 28.1311 0.0295146 37.0998 0.0184466 37.4208 0.0221359 40.5087 0.147573 42.1283 0.213981 43.7332 0.32466 44.6039 0.424272 45.2975 0.505437 46.7769 0.741553 46.9245 0.793204 47.1311 0.863301 47.1901 0.97767 47.2122 1.33184 47.2639 2.12136 46.788 2.95883 46.1349 3.23184 46.0575 3.26136 45.8435 3.32408 45.659 3.36835 45.3381 3.44583 45.2384 3.44951 43.534 3.4532 41.7483 3.45689 41.4938 3.47165 41.0179 3.59709 40.339 3.77417 39.8336 4.12835 39.4979 4.65592 39.1843 5.15398 39.092 5.58563 39.0883 6.56699 39.0883 7.16097 39.0994 7.31961 39.1548 7.47456 39.306 7.91359 39.7008 8.07961 40.8666 8.19029 41.3536 8.23456 41.5454 8.29359 41.6045 8.41534 41.6783 8.55184 41.6598 8.99456 41.5565 9.81728 41.4643 10.5515 41.4643 10.6105 41.479 12.2301 41.4975 13.9604 41.5159 14.1965 41.6893 14.986 41.7336 15.1742 41.8332 15.521 41.9144 15.7534 42.5895 17.6645 42.7445 18.4171 42.7113 19.6456 42.6781 20.9701 42.4198 21.8076 41.5012 23.5563 40.8703 24.7627 40.387 25.7515 40.1214 26.3971 39.6639 27.4965 39.2581 28.8247 39.0515 29.8835 38.926 30.5365 38.926 30.5291 38.867 31.6913 38.7969 33.06 38.7526 33.3883 38.5497 33.9233 38.4464 34.1963 38.166 34.4915 37.9262 34.5763 37.834 34.6095 37.4687 34.746 37.1146 34.8825 34.4546 35.9008 32.134 36.4247 29.9388 36.5058 29.0423 36.539 28.8984 36.5907 27.8728 37.2252 26.7623 37.9151 26.2643 38.0922 25.8326 37.952ZM31.2928 10.6917C31.3076 9.93903 31.3223 9.80252 31.3924 9.58854 31.5474 9.10155 31.8683 8.73262 32.4217 8.40058 32.7685 8.19398 32.9973 8.13126 33.6023 8.07961 34.6353 7.99476 34.8899 7.87301 35.0301 7.40447 35.1666 6.95806 35.1629 5.9767 35.0301 5.44544 34.8309 4.65592 34.2996 4.11359 33.4621 3.84058 32.9751 3.68563 32.632 3.65612 30.8058 3.61553 29.8429 3.59709 28.5738 3.56019 27.9835 3.53437 26.3159 3.46427 22.6229 3.47165 21.708 3.55282 20.2359 3.67825 19.7157 3.77049 19.2693 3.99553 18.7417 4.26117 18.5019 4.54155 18.3212 5.09126 18.1441 5.62621 18.0998 5.93981 18.0961 6.60388 18.0961 7.70699 18.1957 7.79553 19.6678 8.02427 20.4905 8.1534 21.4755 8.39689 23.4825 8.96874 24.8808 9.37087 26.766 9.98699 29.1087 10.8097 31.1305 11.5217 31.1895 11.5402 31.2338 11.5439 31.267 11.5476 31.2817 11.3004 31.2928 10.6917ZM4.81456 8.61087C4.97689 8.5666 5.15029 8.50757 5.20194 8.48544L5.29417 8.44485 5.20194 8.46699C4.94738 8.52233 4.22058 8.71786 4.20583 8.72893 4.17262 8.76214 4.5268 8.69573 4.81456 8.61087ZM7.8767 7.95417C9.0868 7.75495 10.4371 7.64058 11.5217 7.63689 12.7687 7.63689 13.3959 7.53359 13.5951 7.29748 13.6837 7.19049 13.6874 7.17204 13.6874 6.60019 13.6874 5.65204 13.5472 4.92524 13.3074 4.60796 13.0602 4.28699 12.5769 3.96971 12.0751 3.80369 11.5254 3.61922 11.2783 3.60078 9.44466 3.59709 7.61476 3.59709 7.3565 3.61553 6.67767 3.78524 6.48583 3.8332 6.15748 3.95864 5.95087 4.05825 5.63728 4.2132 5.52291 4.29437 5.2868 4.53049 4.78874 5.02854 4.59689 5.47864 4.67437 5.98039 4.77029 6.59282 5.3901 7.47087 5.96563 7.81029 6.40466 8.06485 6.93961 8.10544 7.8767 7.95417ZM4.94369 7.31592C4.53786 6.78097 4.2833 6.07631 4.32757 5.61146L4.34602 5.40485 4.30544 5.56718C4.22427 5.89922 4.37553 6.49689 4.65223 6.95806 4.78505 7.17204 5.08019 7.56311 5.10971 7.56311 5.12078 7.56311 5.04699 7.45243 4.94369 7.31592ZM35.0227 4.49728C34.9231 4.32388 34.735 4.11359 34.5579 3.98078 34.4398 3.88854 34.4583 3.91068 34.628 4.0767 34.7497 4.19845 34.8973 4.36816 34.9563 4.4567 35.0744 4.63748 35.1223 4.66699 35.0227 4.49728ZM7.13883 3.37942C7.72175 3.27981 8.3268 3.2466 9.55534 3.24291 10.7986 3.23553 10.8171 3.20602 9.61068 3.15437 8.65515 3.11379 7.40078 3.22816 6.7699 3.41262 6.57806 3.46796 6.5965 3.46796 7.13883 3.37942ZM21.9625 3.29456C21.7744 3.28718 21.4645 3.28718 21.28 3.29456 21.0918 3.29825 21.2431 3.30563 21.6194 3.30563 21.9957 3.30563 22.147 3.29825 21.9625 3.29456ZM40.9035 3.29825C40.8924 3.28718 40.8592 3.28349 40.8334 3.29456 40.8039 3.30563 40.8149 3.3167 40.8555 3.3167 40.8961 3.32039 40.9183 3.30932 40.9035 3.29825ZM41.2023 3.25767C41.1654 3.25029 41.1064 3.25029 41.0732 3.25767 41.0363 3.26874 41.0658 3.27612 41.1359 3.27612 41.206 3.27612 41.2355 3.26874 41.2023 3.25767ZM43.545 3.25767C43.4381 3.25029 43.261 3.25029 43.1577 3.25767 43.0507 3.26505 43.1355 3.26874 43.3495 3.26874 43.5635 3.26874 43.6483 3.26505 43.545 3.25767ZM44.6887 3.25767C44.6629 3.25029 44.6113 3.25029 44.5781 3.25767 44.5412 3.26874 44.5633 3.27612 44.6223 3.27612 44.685 3.27612 44.7109 3.26874 44.6887 3.25767ZM42.4751 3.22078C42.2685 3.2134 41.9181 3.2134 41.7004 3.22078 41.4827 3.22447 41.6524 3.23184 42.0767 3.23184 42.5047 3.23184 42.6817 3.22447 42.4751 3.22078ZM46.8728 1.56796 46.8913 1.3835 46.8396 1.58641C46.7326 2.02544 46.7326 2.02544 46.799 1.88155 46.8322 1.81146 46.8654 1.67126 46.8728 1.56796Z" fill="#BFBFBF" transform="matrix(1.016 0 0 -1 0.0105107 38)"/></g></svg>